<?xml version="1.0" encoding="utf-8"?>
<!-- Generator: Adobe Illustrator 25.4.1, SVG Export Plug-In . SVG Version: 6.00 Build 0)  -->
<svg version="1.1" id="Capa_1" xmlns="http://www.w3.org/2000/svg" xmlns:xlink="http://www.w3.org/1999/xlink" x="0px" y="0px"
	 viewBox="0 0 275.1 89.2" style="enable-background:new 0 0 275.1 89.2;" xml:space="preserve">
<g>
	<path d="M86.6,30.1l0.4-1l0.9-0.1c1.1-0.1,1.9-0.2,2.5-0.4c0.6-0.2,1-0.4,1.4-0.8c0.3-0.4,0.6-0.9,0.8-1.5l8-22.1
		c0.2-0.6,0.3-1.1,0.3-1.4c0-0.5-0.2-0.8-0.7-1c-0.4-0.2-1.2-0.3-2.3-0.5L97,1.3l0.4-1l6.1,0.1h0l3.4-0.1c3-0.1,5.6,0.2,7.8,1.1
		c2.2,0.8,3.9,2.1,5.2,3.8c1.2,1.7,1.9,3.7,1.9,6.1c0,2-0.3,4-1,5.8c-0.7,1.8-1.6,3.5-2.8,5c-1.3,1.6-2.9,3.1-4.7,4.2
		c-1.8,1.2-3.8,2.1-6,2.7c-2.2,0.6-4.4,1-6.8,1h-7.7L86.6,30.1z M99.1,28.9h1.4c2.6,0,4.9-0.5,7-1.5c2.1-1,4-2.3,5.5-4
		c1.6-1.7,2.8-3.6,3.6-5.7c0.9-2.1,1.3-4.3,1.3-6.6c0-1.9-0.4-3.6-1.1-5s-2-2.6-3.7-3.5c-1.7-0.8-4-1.2-7-1.1l-1.5,0l-8.3,22.9
		c-0.3,0.9-0.5,1.7-0.5,2.3c0,0.7,0.2,1.2,0.5,1.5c0.3,0.3,0.8,0.5,1.3,0.5C98.3,28.8,98.7,28.9,99.1,28.9z"/>
	<path d="M126.5,10.5l-0.1-1.2c1.2-0.1,2.3-0.4,3.4-1c1.1-0.6,1.9-1.5,2.6-2.7c0.3-0.6,0.5-1.2,0.5-1.7c0-0.2,0-0.3-0.1-0.4
		c-0.1,0-0.1-0.1-0.2-0.1c-0.1,0-0.2,0.2-0.3,0.5C132,4.7,131.5,5,130.7,5c-0.7,0-1.3-0.2-1.7-0.7c-0.4-0.4-0.6-1-0.6-1.6
		c0-0.8,0.3-1.5,0.8-2c0.5-0.5,1.2-0.8,1.9-0.8c1,0,1.7,0.3,2.2,1c0.5,0.6,0.7,1.4,0.7,2.4c0,0.8-0.2,1.6-0.7,2.6
		c-0.8,1.6-1.7,2.7-2.9,3.3C129.2,9.9,127.9,10.3,126.5,10.5z"/>
	<path d="M137.2,30.5c-1.3,0-2.4-0.3-3.2-0.8c-0.8-0.5-1.4-1.3-1.8-2.2c-0.4-0.9-0.6-1.9-0.6-2.9c0-1.8,0.4-3.4,1.1-5.1
		c0.8-1.6,1.7-3.1,2.9-4.4c1.2-1.3,2.5-2.3,3.9-3s2.8-1.1,4.2-1.1c1.3,0,2.2,0.4,2.9,1.3c0.7,0.8,1,1.9,1.1,3.2l1.4-3.9h2.8
		l-5.2,14.8c-0.1,0.4-0.2,0.8-0.3,1.1c-0.1,0.3-0.1,0.6-0.1,0.8c0,0.6,0.2,0.8,0.7,0.8c0.6,0,1.2-0.3,1.8-1c0.6-0.6,1.1-1.3,1.4-1.9
		l0.8,0.5c-0.5,0.9-1.2,1.7-2,2.5c-0.8,0.8-1.8,1.2-3,1.2c-0.9,0-1.5-0.2-1.8-0.6c-0.3-0.4-0.5-1-0.5-1.7c0-0.5,0.1-1.1,0.2-1.8
		c-0.9,1.3-1.9,2.3-3,3C139.6,30.2,138.4,30.5,137.2,30.5z M137.6,29.4c1.6,0,3.1-0.8,4.5-2.3c1.4-1.5,2.6-3.5,3.6-6l0.5-1.4
		c0.5-1.4,0.7-2.7,0.7-3.8c0-1.1-0.2-2.1-0.7-2.8c-0.5-0.7-1.2-1.1-2.2-1.1c-1.1,0-2.2,0.4-3.3,1.3c-1.1,0.8-2.1,2-3,3.3
		c-0.9,1.4-1.6,2.8-2.2,4.4c-0.5,1.5-0.8,3-0.8,4.4c0,1.3,0.3,2.3,0.8,3C136,29.1,136.7,29.4,137.6,29.4z"/>
	<path d="M153,29.9l5.2-14.3c0.3-0.9,0.5-1.6,0.4-2c-0.1-0.4-0.3-0.7-0.8-0.8c-0.5-0.1-1.1-0.2-2-0.2l0.3-1l5.7-0.1l-1.8,6.1
		c0.6-1.2,1.3-2.3,2-3.3c0.7-1,1.5-1.8,2.4-2.4c0.9-0.6,1.8-0.9,2.9-0.9c0.7,0,1.4,0.2,2.1,0.7c0.7,0.4,1,1.2,1,2.1
		c0,0.4-0.1,0.8-0.4,1.3c-0.3,0.4-0.7,0.6-1.4,0.6c-0.5,0-0.9-0.1-1.2-0.4c-0.3-0.3-0.5-0.7-0.6-1.4c-0.2-0.8-0.6-1.3-1.3-1.3
		c-0.5,0-1.1,0.2-1.7,0.8c-0.6,0.5-1.3,1.3-2,2.5c-0.5,0.8-1,1.7-1.5,2.8c-0.5,1.1-1.1,2.3-1.6,3.7l-2.8,7.6H153z"/>
	<path d="M173.2,30.5c-0.8,0-1.4-0.2-1.8-0.6c-0.4-0.4-0.5-1-0.5-1.7c0-0.4,0.1-0.8,0.2-1.3c0.1-0.5,0.3-1,0.5-1.5l4.6-12.8h-2.7
		l0.3-1h2.8l1.3-3.6h2.8l-1.3,3.6h3.8l-0.3,1h-3.9L174,26.5c-0.2,0.7-0.3,1.2-0.3,1.5c0,0.8,0.3,1.1,1,1.1c0.6,0,1.3-0.3,1.8-0.9
		c0.6-0.6,1.1-1.2,1.4-1.8l0.8,0.5c-0.5,0.9-1.2,1.7-2.1,2.4C175.7,30.1,174.5,30.5,173.2,30.5z"/>
	<path d="M16.2,89.6c-3.4,0-6.2-0.8-8.6-2.3c-2.4-1.5-4.3-3.7-5.6-6.4C0.6,78.2,0,75.1,0,71.6c0-2.6,0.4-5,1.3-7.2
		c0.9-2.2,2-4.1,3.5-5.8c1.5-1.6,3.3-2.9,5.2-3.8c2-0.9,4.1-1.4,6.4-1.4c2,0,3.7,0.2,5,0.7c1.3,0.4,2.3,0.8,2.9,1.2
		c0.4,0.2,0.8,0.4,1.2,0.5c0.4,0.1,0.6,0.2,0.7,0.2c0.4,0,0.7-0.1,0.9-0.4c0.2-0.3,0.4-0.8,0.4-1.5h1.2l-0.1,5.8l0.1,5.8h-1.2
		c-0.5-3.4-1.7-6.1-3.5-7.9c-1.9-1.9-4.4-2.8-7.4-2.8c-2.2,0-4,0.4-5.5,1.3c-1.5,0.9-2.7,2.1-3.5,3.6c-0.9,1.5-1.5,3.3-1.9,5.3
		c-0.4,2-0.6,4.2-0.6,6.5C5,75,5.4,78,6.1,80.4c0.7,2.5,2,4.4,3.6,5.7c1.7,1.3,4,2,6.8,2c2.1,0,4-0.5,5.6-1.5c1.6-1,2.8-2.3,3.8-3.9
		c1-1.6,1.6-3.4,1.7-5.4h1.2l-0.1,6l0.1,5.8h-1.2l-0.1-0.5c-0.1-0.4-0.3-0.8-0.5-1.2c-0.2-0.4-0.5-0.6-0.9-0.6
		c-0.2,0-0.5,0.1-0.8,0.2c-0.3,0.1-0.7,0.3-1.1,0.5c-0.9,0.4-2,0.9-3.4,1.4C19.7,89.3,18,89.6,16.2,89.6z"/>
	<path d="M34.4,89.2V88l1-0.1c1.1-0.1,2-0.3,2.6-0.5c0.6-0.2,1-0.7,1.3-1.4c0.2-0.7,0.3-1.9,0.3-3.5V60.6c0-1.6-0.1-2.8-0.3-3.5
		C39,56.4,38.6,56,38,55.8c-0.6-0.2-1.5-0.4-2.6-0.5l-1-0.1v-1.2l7.3,0.1h19.1l0.1,3.5l0.4,4.5h-1.2c-0.2-1.5-0.5-2.7-0.9-3.5
		c-0.4-0.9-0.9-1.6-1.6-2c-0.7-0.4-1.6-0.7-2.8-0.9c-1.2-0.1-2.7-0.2-4.5-0.2h-6.5v14.4h5.5c0.7,0,1.2-0.2,1.7-0.5
		c0.5-0.3,0.9-0.9,1.2-1.7c0.3-0.9,0.5-2.1,0.6-3.7h1.2l-0.1,6.6l0.1,7.3h-1.2c0-2.4-0.3-4.1-0.9-5.1c-0.6-1-1.5-1.5-2.6-1.5h-5.5
		v12.5c0,1.6,0.3,2.6,1,3.1c0.7,0.5,2,0.8,3.8,0.8h4.6c1.9,0,3.4-0.2,4.5-0.6c1.1-0.4,1.9-1.3,2.4-2.6c0.5-1.3,0.9-3.2,1.1-5.7h1.2
		l-0.3,5.9l-0.1,4.4H41.7L34.4,89.2z"/>
	<path d="M94.3,89.6c-1.8,0-3.1-0.6-4-1.8c-0.9-1.2-1.4-2.8-1.7-4.6c-0.2-1.3-0.4-2.6-0.8-3.9c-0.3-1.3-0.9-2.5-1.6-3.6
		c-0.7-1.1-1.8-2-3.1-2.6c-1.3-0.7-3.1-1-5.2-1h-2.1v10.5c0,1.6,0.1,2.8,0.3,3.5c0.2,0.7,0.7,1.2,1.3,1.4c0.6,0.2,1.5,0.4,2.6,0.5
		l1,0.1v1.2l-7.3-0.1h0l-7.3,0.1V88l1-0.1c1.1-0.1,2-0.3,2.6-0.5c0.6-0.2,1-0.7,1.3-1.4c0.2-0.7,0.3-1.9,0.3-3.5V60.6
		c0-1.6-0.1-2.8-0.3-3.5C71,56.4,70.6,56,70,55.8c-0.6-0.2-1.5-0.4-2.6-0.5l-1-0.1v-1.2l7.3,0.1h6.9c2.2,0,4.3,0.3,6.2,0.8
		c1.9,0.5,3.4,1.4,4.6,2.6c1.2,1.2,1.7,3,1.7,5.2c0,2-0.4,3.6-1.3,4.8c-0.9,1.2-2,2.2-3.4,2.8c-1.4,0.6-3,1.1-4.7,1.4
		c2.4,0.2,4.4,1,5.9,2.5c1.5,1.5,2.5,3.7,2.9,6.6c0.3,1.8,0.7,3.3,1.1,4.3s0.9,1.8,1.5,2.2c0.5,0.4,1.1,0.6,1.7,0.6
		c0.4,0,0.7-0.1,1.1-0.2c0.3-0.1,0.6-0.3,0.9-0.4l0.3,1.2c-0.5,0.3-1.2,0.5-2.1,0.8C96.1,89.5,95.2,89.6,94.3,89.6z M80.7,55.4h-4.9
		v15.3h4.1c3.2,0,5.4-0.6,6.6-1.9c1.3-1.3,1.9-3.2,1.9-5.8c0-2.4-0.6-4.3-1.7-5.6C85.6,56,83.5,55.4,80.7,55.4z"/>
	<path d="M97.9,89.2V88l0.4,0c1.1-0.2,2.1-0.4,2.8-0.7c0.7-0.3,1.4-0.8,1.9-1.5c0.5-0.7,1.1-1.6,1.6-2.8l11.9-28.9h1.7L129.9,83
		c0.7,1.6,1.4,2.8,2.1,3.5c0.8,0.8,1.8,1.2,3.1,1.3l1,0.1v1.2l-6.1-0.1l-7.9,0.1V88l1-0.1c1.1-0.1,2-0.4,2.5-0.7
		c0.5-0.4,0.7-0.9,0.7-1.5c0-0.7-0.2-1.5-0.7-2.7l-2.6-6.4h-13.9l-2.7,6.4c-0.2,0.6-0.4,1.1-0.6,1.6c-0.2,0.5-0.2,0.9-0.2,1.3
		c0,0.6,0.3,1.1,0.8,1.4c0.5,0.3,1.4,0.5,2.7,0.6l1,0.1v1.2l-6.3-0.1L97.9,89.2z M109.8,75h12.7l-6.2-15.6L109.8,75z"/>
	<path d="M137.1,89.2V88l1-0.1c1.1-0.1,2-0.3,2.6-0.5c0.6-0.2,1-0.7,1.3-1.4c0.2-0.7,0.3-1.9,0.3-3.5V60.6c0-1.6-0.1-2.8-0.3-3.5
		c-0.2-0.7-0.6-1.1-1.3-1.4c-0.6-0.2-1.5-0.4-2.6-0.5l-1-0.1v-1.2l7.3,0.1h2.8l11.7,28.4l13-28.4h3l6.9-0.1v1.2l-1,0.1
		c-1.1,0.1-2,0.3-2.6,0.5c-0.6,0.2-1.1,0.7-1.3,1.4c-0.2,0.7-0.3,1.9-0.3,3.5v21.9c0,1.6,0.1,2.8,0.3,3.5c0.2,0.7,0.7,1.2,1.3,1.4
		c0.6,0.2,1.5,0.4,2.6,0.5l1,0.1v1.2l-7.3-0.1l-7.3,0.1V88l1-0.1c1.1-0.1,2-0.3,2.6-0.5c0.6-0.2,1-0.7,1.3-1.4
		c0.2-0.7,0.3-1.9,0.3-3.5V57.2l-14.6,31.9h-0.9L144,57.7v26.2c0,1.1,0.1,1.8,0.4,2.4c0.3,0.5,0.7,0.9,1.3,1.1
		c0.6,0.2,1.5,0.4,2.5,0.5l1,0.1v1.2l-6.3-0.1L137.1,89.2z"/>
	<path d="M185.6,89.2V88l1-0.1c1.1-0.1,2-0.3,2.6-0.5c0.6-0.2,1-0.7,1.3-1.4c0.2-0.7,0.3-1.9,0.3-3.5V60.6c0-1.6-0.1-2.8-0.3-3.5
		c-0.2-0.7-0.6-1.1-1.3-1.4c-0.6-0.2-1.5-0.4-2.6-0.5l-1-0.1v-1.2l7.3,0.1h0l7.3-0.1v1.2l-1,0.1c-1.1,0.1-2,0.3-2.6,0.5
		c-0.6,0.2-1.1,0.7-1.3,1.4c-0.2,0.7-0.3,1.9-0.3,3.5v21.9c0,1.6,0.1,2.8,0.3,3.5c0.2,0.7,0.7,1.2,1.3,1.4c0.6,0.2,1.5,0.4,2.6,0.5
		l1,0.1v1.2l-7.3-0.1h0L185.6,89.2z"/>
	<path d="M221.4,89.6c-3.4,0-6.2-0.8-8.6-2.3c-2.4-1.5-4.3-3.7-5.6-6.4c-1.3-2.7-1.9-5.8-1.9-9.3c0-2.6,0.4-5,1.3-7.2
		c0.9-2.2,2-4.1,3.5-5.8c1.5-1.6,3.3-2.9,5.2-3.8c2-0.9,4.1-1.4,6.4-1.4c2,0,3.7,0.2,5,0.7c1.3,0.4,2.3,0.8,2.9,1.2
		c0.4,0.2,0.8,0.4,1.2,0.5c0.4,0.1,0.6,0.2,0.7,0.2c0.4,0,0.7-0.1,0.9-0.4c0.2-0.3,0.4-0.8,0.4-1.5h1.2l-0.1,5.8l0.1,5.8h-1.2
		c-0.5-3.4-1.7-6.1-3.5-7.9c-1.9-1.9-4.4-2.8-7.4-2.8c-2.2,0-4,0.4-5.5,1.3c-1.5,0.9-2.7,2.1-3.5,3.6c-0.9,1.5-1.5,3.3-1.9,5.3
		c-0.4,2-0.6,4.2-0.6,6.5c0,3.4,0.4,6.4,1.1,8.9c0.7,2.5,2,4.4,3.6,5.7c1.7,1.3,4,2,6.8,2c2.1,0,4-0.5,5.6-1.5
		c1.6-1,2.8-2.3,3.8-3.9c1-1.6,1.6-3.4,1.7-5.4h1.2l-0.1,6l0.1,5.8h-1.2l-0.1-0.5c-0.1-0.4-0.3-0.8-0.5-1.2
		c-0.2-0.4-0.5-0.6-0.9-0.6c-0.2,0-0.5,0.1-0.8,0.2c-0.3,0.1-0.7,0.3-1.1,0.5c-0.9,0.4-2,0.9-3.4,1.4
		C224.9,89.3,223.3,89.6,221.4,89.6z"/>
	<path d="M236.9,89.2V88l0.4,0c1.1-0.2,2.1-0.4,2.8-0.7c0.7-0.3,1.4-0.8,1.9-1.5c0.5-0.7,1.1-1.6,1.6-2.8l11.9-28.9h1.7L268.9,83
		c0.7,1.6,1.4,2.8,2.1,3.5c0.8,0.8,1.8,1.2,3.1,1.3l1,0.1v1.2l-6.1-0.1l-7.9,0.1V88l1-0.1c1.1-0.1,2-0.4,2.5-0.7
		c0.5-0.4,0.7-0.9,0.7-1.5c0-0.7-0.2-1.5-0.7-2.7l-2.6-6.4h-13.9l-2.7,6.4c-0.2,0.6-0.4,1.1-0.6,1.6c-0.2,0.5-0.2,0.9-0.2,1.3
		c0,0.6,0.3,1.1,0.8,1.4c0.5,0.3,1.4,0.5,2.7,0.6l1,0.1v1.2l-6.3-0.1L236.9,89.2z M248.8,75h12.7l-6.2-15.6L248.8,75z"/>
</g>
</svg>
